<svg xmlns="http://www.w3.org/2000/svg" xmlns:xlink="http://www.w3.org/1999/xlink" xmlns:inkscape="http://www.inkscape.org/namespaces/inkscape" version="1.1" width="1190.55" height="792" viewBox="0 0 1190.55 792">
<defs>
<clipPath id="clip_1">
<path transform="matrix(1,0,0,-1,0,792)" d="M0 0H1190.55V792H0Z"/>
</clipPath>
</defs>
<g clip-path="url(#clip_1)">
<path transform="matrix(1,0,0,-1,389.7339,360.689)" stroke-width="9" stroke-linecap="butt" stroke-miterlimit="10" stroke-linejoin="miter" fill="none" stroke="#010202" d="M0 0H-312.999"/>
<path transform="matrix(1,0,0,-1,389.7339,360.689)" stroke-width="9" stroke-linecap="butt" stroke-miterlimit="10" stroke-linejoin="miter" fill="none" stroke="#010202" d="M0 0H-313.187L-313.124-230.625H398.98"/>
<path transform="matrix(1,0,0,-1,742.8986,446.0327)" stroke-width="9" stroke-linecap="butt" stroke-miterlimit="10" stroke-linejoin="miter" fill="none" stroke="#010202" d="M0 0-668.539 .016"/>
<path transform="matrix(1,0,0,-1,935.7328,531.3136)" stroke-width="9" stroke-linecap="butt" stroke-miterlimit="10" stroke-linejoin="miter" fill="none" stroke="#010202" d="M0 0H-36.878"/>
<path transform="matrix(1,0,0,-1,944.7072,506.5637)" stroke-width="9" stroke-linecap="butt" stroke-miterlimit="10" stroke-linejoin="miter" fill="none" stroke="#010202" d="M0 0H-14.102"/>
<path transform="matrix(1,0,0,-1,999.1077,506.5637)" stroke-width="9" stroke-linecap="butt" stroke-miterlimit="10" stroke-linejoin="miter" fill="none" stroke="#010202" d="M0 0H-10.176"/>
<path transform="matrix(1,0,0,-1,827.733,523.8137)" stroke-width="9" stroke-linecap="butt" stroke-miterlimit="10" stroke-linejoin="miter" fill="none" stroke="#010202" d="M0 0H-40.315L-40-91.125 107.98-91.109 108.02 17.125"/>
<path transform="matrix(1,0,0,-1,876.7983,531.3136)" stroke-width="9" stroke-linecap="butt" stroke-miterlimit="10" stroke-linejoin="miter" fill="none" stroke="#010202" d="M0 0H-14.784"/>
<path transform="matrix(1,0,0,-1,862.3704,446.0248)" stroke-width="9" stroke-linecap="butt" stroke-miterlimit="10" stroke-linejoin="miter" fill="none" stroke="#010202" d="M0 0H-83.387"/>
<path transform="matrix(1,0,0,-1,805.6355,252.52509)" stroke-width="9" stroke-linecap="butt" stroke-miterlimit="10" stroke-linejoin="miter" fill="none" stroke="#010202" d="M0 0H-26.652"/>
<path transform="matrix(1,0,0,-1,756.5172,252.52509)" stroke-width="9" stroke-linecap="butt" stroke-miterlimit="10" stroke-linejoin="miter" fill="none" stroke="#010202" d="M0 0H-123.856"/>
<path transform="matrix(1,0,0,-1,388.4839,252.52509)" stroke-width="9" stroke-linecap="butt" stroke-miterlimit="10" stroke-linejoin="miter" fill="none" stroke="#010202" d="M0 0H215.854V96.489"/>
<path transform="matrix(1,0,0,-1,851.608,207.46338)" stroke-width="9" stroke-linecap="butt" stroke-miterlimit="10" stroke-linejoin="miter" fill="none" stroke="#010202" d="M0 0V-45.062H-24.464"/>
<path transform="matrix(1,0,0,-1,1008.301,207.81427)" stroke-width="9" stroke-linecap="butt" stroke-miterlimit="10" stroke-linejoin="miter" fill="none" stroke="#010202" d="M0 0V-44.711H-65.519"/>
<path transform="matrix(1,0,0,-1,1017.697,207.46338)" stroke-width="9" stroke-linecap="butt" stroke-miterlimit="10" stroke-linejoin="miter" fill="none" stroke="#010202" d="M0 0H-190.271"/>
<path transform="matrix(1,0,0,-1,804.6971,207.46338)" stroke-width="9" stroke-linecap="butt" stroke-miterlimit="10" stroke-linejoin="miter" fill="none" stroke="#010202" d="M0 0H-32.075"/>
<path transform="matrix(1,0,0,-1,786.1755,127.189517)" stroke-width="9" stroke-linecap="butt" stroke-miterlimit="10" stroke-linejoin="miter" fill="none" stroke="#010202" d="M0 0V10.476H159.624V-80.625"/>
<path transform="matrix(1,0,0,-1,1020.577,446.0248)" stroke-width="9" stroke-linecap="butt" stroke-miterlimit="10" stroke-linejoin="miter" fill="none" stroke="#010202" d="M0 0H-133.344"/>
<path transform="matrix(1,0,0,-1,907.2431,503.9699)" stroke-width="4" stroke-linecap="butt" stroke-miterlimit="10" stroke-linejoin="miter" fill="none" stroke="#010202" d="M0 0H-45.209"/>
<path transform="matrix(1,0,0,-1,883.0047,561.0636)" stroke-width="4" stroke-linecap="butt" stroke-miterlimit="10" stroke-linejoin="miter" fill="none" stroke="#010202" d="M0 0H-54.845"/>
<path transform="matrix(1,0,0,-1,830.4521,615.21426)" stroke-width="4" stroke-linecap="butt" stroke-miterlimit="10" stroke-linejoin="miter" fill="none" stroke="#010202" d="M0 0 .04 27.901H-16.261"/>
<path transform="matrix(1,0,0,-1,881.077,615.21426)" stroke-width="4" stroke-linecap="butt" stroke-miterlimit="10" stroke-linejoin="miter" fill="none" stroke="#010202" d="M0 0 .04 29.901"/>
<path transform="matrix(1,0,0,-1,827.7955,496.0949)" stroke-width="4" stroke-linecap="butt" stroke-miterlimit="10" stroke-linejoin="miter" fill="none" stroke="#010202" d="M0 0H-95.259"/>
<path transform="matrix(1,0,0,-1,854.9634,616.7642)" stroke-width="4" stroke-linecap="butt" stroke-miterlimit="10" stroke-linejoin="miter" fill="none" stroke="#010202" d="M0 0 .04 55.575"/>
<path transform="matrix(1,0,0,-1,861.9632,560.9386)" stroke-width="4" stroke-linecap="butt" stroke-miterlimit="10" stroke-linejoin="miter" fill="none" stroke="#010202" d="M0 0 .04 66.663"/>
<path transform="matrix(1,0,0,-1,827.7132,534.9385)" stroke-width="9" stroke-linecap="butt" stroke-miterlimit="10" stroke-linejoin="miter" fill="none" stroke="#010202" d="M0 0 .04 40.456"/>
<path transform="matrix(1,0,0,-1,827.7132,460.9388)" stroke-width="9" stroke-linecap="butt" stroke-miterlimit="10" stroke-linejoin="miter" fill="none" stroke="#010202" d="M0 0 .04 14.875"/>
<path transform="matrix(1,0,0,-1,967.4827,317.1891)" stroke-width="9" stroke-linecap="butt" stroke-miterlimit="10" stroke-linejoin="miter" fill="none" stroke="#010202" d="M0 0V64"/>
<path transform="matrix(1,0,0,-1,967.4827,445.9388)" stroke-width="9" stroke-linecap="butt" stroke-miterlimit="10" stroke-linejoin="miter" fill="none" stroke="#010202" d="M0 0V64.25"/>
<path transform="matrix(1,0,0,-1,786.1081,207.50177)" stroke-width="9" stroke-linecap="butt" stroke-miterlimit="10" stroke-linejoin="miter" fill="none" stroke="#010202" d="M0 0-.125 47.623H-186.359"/>
<path transform="matrix(1,0,0,-1,732.4832,594.9385)" stroke-width="9" stroke-linecap="butt" stroke-miterlimit="10" stroke-linejoin="miter" fill="none" stroke="#010202" d="M0 0V27"/>
<path transform="matrix(1,0,0,-1,732.4832,460.9388)" stroke-width="9" stroke-linecap="butt" stroke-miterlimit="10" stroke-linejoin="miter" fill="none" stroke="#010202" d="M0 0V17"/>
<path transform="matrix(1,0,0,-1,732.4832,513.8137)" stroke-width="9" stroke-linecap="butt" stroke-miterlimit="10" stroke-linejoin="miter" fill="none" stroke="#010202" d="M0 0V29.75"/>
<path transform="matrix(1,0,0,-1,1016.483,155.93939)" stroke-width="9" stroke-linecap="butt" stroke-miterlimit="10" stroke-linejoin="miter" fill="none" stroke="#010202" d="M0 0H-21V34H112L112.125-97H119V-290.499H112.125L112.062-417.585H-17.383L-17.378-342.124H4.814"/>
<path transform="matrix(1,0,0,-1,787.4831,446.0638)" stroke-width="9" stroke-linecap="butt" stroke-miterlimit="10" stroke-linejoin="miter" fill="none" stroke="#010202" d="M0 0V189.562"/>
<path transform="matrix(1,0,0,-1,749.7745,188.6623)" stroke-width=".793" stroke-linecap="butt" stroke-miterlimit="10" stroke-linejoin="miter" fill="none" stroke="#010202" d="M0 0C12.475 0 22.848-10.373 22.848-22.848"/>
<path transform="matrix(1,0,0,-1,749.8223,186.28229)" stroke-width=".793" stroke-linecap="butt" stroke-miterlimit="10" stroke-linejoin="miter" fill="none" stroke="#010202" d="M0 0V-2.38-24.834"/>
<path transform="matrix(1,0,0,-1,749.8223,211.38013)" stroke-width=".793" stroke-linecap="butt" stroke-miterlimit="10" stroke-linejoin="miter" fill="none" stroke="#010202" d="M0 0H1.717"/>
<path transform="matrix(1,0,0,-1,737.2332,159.87921)" stroke-width="9" stroke-linecap="butt" stroke-miterlimit="10" stroke-linejoin="miter" fill="none" stroke="#010202" d="M0 0V-92.646"/>
<path transform="matrix(1,0,0,-1,749.8223,207.22602)" stroke-width="9" stroke-linecap="butt" stroke-miterlimit="10" stroke-linejoin="miter" fill="none" stroke="#010202" d="M0 0H-9.125"/>
<path transform="matrix(1,0,0,-1,778.9832,234.25537)" stroke-width=".793" stroke-linecap="butt" stroke-miterlimit="10" stroke-linejoin="miter" fill="none" stroke="#010202" d="M0 0C-12.475 0-22.848-10.373-22.848-22.848"/>
<path transform="matrix(1,0,0,-1,778.9353,231.87543)" stroke-width=".793" stroke-linecap="butt" stroke-miterlimit="10" stroke-linejoin="miter" fill="none" stroke="#010202" d="M0 0V-2.38-24.834"/>
<path transform="matrix(1,0,0,-1,778.9353,256.97309)" stroke-width=".793" stroke-linecap="butt" stroke-miterlimit="10" stroke-linejoin="miter" fill="none" stroke="#010202" d="M0 0H-1.717"/>
<path transform="matrix(1,0,0,-1,767.3463,149.8919)" stroke-width=".793" stroke-linecap="butt" stroke-miterlimit="10" stroke-linejoin="miter" fill="none" stroke="#010202" d="M0 0C0 12.475 10.373 22.848 22.848 22.848"/>
<path transform="matrix(1,0,0,-1,764.9662,149.84412)" stroke-width=".793" stroke-linecap="butt" stroke-miterlimit="10" stroke-linejoin="miter" fill="none" stroke="#010202" d="M0 0H2.38 24.834"/>
<path transform="matrix(1,0,0,-1,790.064,149.84412)" stroke-width=".793" stroke-linecap="butt" stroke-miterlimit="10" stroke-linejoin="miter" fill="none" stroke="#010202" d="M0 0V1.717"/>
<path transform="matrix(1,0,0,-1,786.1706,159.08283)" stroke-width="9" stroke-linecap="butt" stroke-miterlimit="10" stroke-linejoin="miter" fill="none" stroke="#010202" d="M0 0V9.009"/>
<path transform="matrix(1,0,0,-1,254.2342,360.7922)" stroke-width="9" stroke-linecap="butt" stroke-miterlimit="10" stroke-linejoin="miter" fill="none" stroke="#010202" d="M0 0V-42.288"/>
<path transform="matrix(1,0,0,-1,285.3582,360.7922)" stroke-width="9" stroke-linecap="butt" stroke-miterlimit="10" stroke-linejoin="miter" fill="none" stroke="#010202" d="M0 0V-56.161"/>
<path transform="matrix(1,0,0,-1,319.7329,360.7922)" stroke-width="9" stroke-linecap="butt" stroke-miterlimit="10" stroke-linejoin="miter" fill="none" stroke="#010202" d="M0 0V-56.161"/>
<text fill="#010202" xml:space="preserve" transform="matrix(1 0 -0 1 0 792)" font-size="12" font-family="MyriadPro-Regular"><tspan y="-448.9199" x="873.6182 880.12228 887.46627">BAR</tspan></text>
<text fill="#010202" xml:space="preserve" transform="matrix(1 0 -0 1 0 792)" font-size="7.4294" font-family="MyriadPro-Regular"><tspan y="-228.1768" x="899.4072 905.3805 909.03579 913.9243">MENS</tspan></text>
<text fill="#010202" xml:space="preserve" transform="matrix(1 0 -0 1 0 792)" font-size="7.4294" font-family="MyriadPro-Regular"><tspan y="-219.2615" x="896.012 899.5046 904.6234 906.39907 909.9057 913.6806 917.32766">TOILETS</tspan></text>
<text fill="#010202" xml:space="preserve" transform="matrix(1 0 -0 1 0 792)" font-size="7.4294" font-family="MyriadPro-Regular"><tspan y="-241.7132" x="796.9632 803.2485 808.3673 814.3406 817.99588 822.8844">WOMENS</tspan></text>
<text fill="#010202" xml:space="preserve" transform="matrix(1 0 -0 1 0 792)" font-size="7.4294" font-family="MyriadPro-Regular"><tspan y="-232.7979" x="799.2663 802.75888 807.8777 809.6533 813.16 816.9349 820.5819">TOILETS</tspan></text>
<text fill="#010202" xml:space="preserve" transform="matrix(1 0 -0 1 0 792)" font-size="12" font-family="MyriadPro-Regular"><tspan y="-580.8838" x="646.3574 652.86148 655.72946 661.36947 668.32949 676.15347 682.05746">KITCHEN</tspan></text>
<text fill="#010202" xml:space="preserve" transform="matrix(1 0 -0 1 0 792)" font-size="12" font-family="MyriadPro-Regular"><tspan y="-444.2638" x="559.9214 567.74539 575.08938 580.75338">HALL</tspan></text>
<text fill="#010202" xml:space="preserve" transform="matrix(1 0 -0 1 0 792)" font-size="12" font-family="MyriadPro-Regular"><tspan y="-388.6198" x="139.5374 146.2454 154.51342 160.3574 166.2014 172.10541">COFFEE</tspan></text>
<text fill="#010202" xml:space="preserve" transform="matrix(1 0 -0 1 0 792)" font-size="12" font-family="MyriadPro-Regular"><tspan y="-374.2198" x="142.4294 148.92139 157.18939 165.4574">ROOM</tspan></text>
<text fill="#010202" xml:space="preserve" transform="matrix(1 0 -0 1 0 792)" font-size="12" font-family="MyriadPro-Regular"><tspan y="-277.2838" x="389.0054 394.9214 401.42539 404.2934 410.71339 416.67738 422.34138">SKITTLE</tspan></text>
<text fill="#010202" xml:space="preserve" transform="matrix(1 0 -0 1 0 792)" font-size="12" font-family="MyriadPro-Regular"><tspan y="-262.8838" x="393.0734 400.4174 406.0814 411.7454 417.68418">ALLEY</tspan></text>
<text fill="#010202" xml:space="preserve" transform="matrix(1 0 -0 1 0 792)" font-size="12" font-family="MyriadPro-Regular"><tspan y="-628.0198" x="835.9574 842.9174 848.8214 854.4854 860.1494 867.4934">CELLAR</tspan></text>
<path transform="matrix(1,0,0,-1,392.9529,410.8726)" stroke-width="9" stroke-linecap="butt" stroke-miterlimit="10" stroke-linejoin="miter" fill="none" stroke="#010202" d="M0 0V158.347"/>
<path transform="matrix(1,0,0,-1,632.6642,234.61219)" stroke-width=".793" stroke-linecap="butt" stroke-miterlimit="10" stroke-linejoin="miter" fill="none" stroke="#010202" d="M0 0C-12.475 0-22.848-10.373-22.848-22.848"/>
<path transform="matrix(1,0,0,-1,632.6165,232.23218)" stroke-width=".793" stroke-linecap="butt" stroke-miterlimit="10" stroke-linejoin="miter" fill="none" stroke="#010202" d="M0 0V-2.38-24.834"/>
<path transform="matrix(1,0,0,-1,632.6165,257.33003)" stroke-width=".793" stroke-linecap="butt" stroke-miterlimit="10" stroke-linejoin="miter" fill="none" stroke="#010202" d="M0 0H-1.717"/>
<path transform="matrix(1,0,0,-1,0,792)" d="M749.774 580.49H772.622V589.058H749.774Z" fill="#ffffff"/>
<path transform="matrix(1,0,0,-1,0,792)" d="M756.135 534.897H778.98306V543.46499H756.135Z" fill="#ffffff"/>
<path transform="matrix(1,0,0,-1,0,792)" d="M781.626 642.108H790.194V664.956H781.626Z" fill="#ffffff"/>
<path transform="matrix(1,0,0,-1,0,792)" d="M612.315 535.54H632.027V543.62197H612.315Z" fill="#ffffff"/>
<path transform="matrix(1,0,0,-1,0,792)" d="M97.651 426.722H141.901V435.69398H97.651Z" fill="#ffffff"/>
<path transform="matrix(1,0,0,-1,0,792)" stroke-width="1" stroke-linecap="butt" stroke-miterlimit="10" stroke-linejoin="miter" fill="none" stroke="#010202" d="M97.651 426.722H141.901V435.69398H97.651Z"/>
<path transform="matrix(1,0,0,-1,0,792)" d="M72.061 366.795H81.033V411.045H72.061Z" fill="#ffffff"/>
<path transform="matrix(1,0,0,-1,0,792)" stroke-width="1" stroke-linecap="butt" stroke-miterlimit="10" stroke-linejoin="miter" fill="none" stroke="#010202" d="M72.061 366.795H81.033V411.045H72.061Z"/>
<path transform="matrix(1,0,0,-1,0,792)" d="M146.151 426.722H190.401V435.69398H146.151Z" fill="#ffffff"/>
<path transform="matrix(1,0,0,-1,0,792)" stroke-width="1" stroke-linecap="butt" stroke-miterlimit="10" stroke-linejoin="miter" fill="none" stroke="#010202" d="M146.151 426.722H190.401V435.69398H146.151Z"/>
<path transform="matrix(1,0,0,-1,0,792)" d="M668.156 196.201H720.637V205.173H668.156Z" fill="#ffffff"/>
<path transform="matrix(1,0,0,-1,0,792)" stroke-width="1.089" stroke-linecap="butt" stroke-miterlimit="10" stroke-linejoin="miter" fill="none" stroke="#010202" d="M668.156 196.201H720.637V205.173H668.156Z"/>
<path transform="matrix(1,0,0,-1,0,792)" d="M835.64 172.576H849.814V181.548H835.64Z" fill="#ffffff"/>
<path transform="matrix(1,0,0,-1,0,792)" stroke-width=".566" stroke-linecap="butt" stroke-miterlimit="10" stroke-linejoin="miter" fill="none" stroke="#010202" d="M835.64 172.576H849.814V181.548H835.64Z"/>
<path transform="matrix(1,0,0,-1,0,792)" d="M860.633 172.576H874.807V181.548H860.633Z" fill="#ffffff"/>
<path transform="matrix(1,0,0,-1,0,792)" stroke-width=".566" stroke-linecap="butt" stroke-miterlimit="10" stroke-linejoin="miter" fill="none" stroke="#010202" d="M860.633 172.576H874.807V181.548H860.633Z"/>
<path transform="matrix(1,0,0,-1,0,792)" d="M888.282 172.576H902.456V181.548H888.282Z" fill="#ffffff"/>
<path transform="matrix(1,0,0,-1,0,792)" stroke-width=".566" stroke-linecap="butt" stroke-miterlimit="10" stroke-linejoin="miter" fill="none" stroke="#010202" d="M888.282 172.576H902.456V181.548H888.282Z"/>
<path transform="matrix(1,0,0,-1,0,792)" d="M1011.908 213.99H1040.133V222.962H1011.908Z" fill="#ffffff"/>
<path transform="matrix(1,0,0,-1,0,792)" stroke-width=".799" stroke-linecap="butt" stroke-miterlimit="10" stroke-linejoin="miter" fill="none" stroke="#010202" d="M1011.908 213.99H1040.133V222.962H1011.908Z"/>
<path transform="matrix(1,0,0,-1,0,792)" d="M1047.813 213.99H1076.038V222.962H1047.813Z" fill="#ffffff"/>
<path transform="matrix(1,0,0,-1,0,792)" stroke-width=".799" stroke-linecap="butt" stroke-miterlimit="10" stroke-linejoin="miter" fill="none" stroke="#010202" d="M1047.813 213.99H1076.038V222.962H1047.813Z"/>
<path transform="matrix(1,0,0,-1,0,792)" d="M1083.717 213.99H1111.942V222.962H1083.717Z" fill="#ffffff"/>
<path transform="matrix(1,0,0,-1,0,792)" stroke-width=".799" stroke-linecap="butt" stroke-miterlimit="10" stroke-linejoin="miter" fill="none" stroke="#010202" d="M1083.717 213.99H1111.942V222.962H1083.717Z"/>
<path transform="matrix(1,0,0,-1,0,792)" d="M1130.996 377.731H1139.968V503.703H1130.996Z" fill="#ffffff"/>
<path transform="matrix(1,0,0,-1,0,792)" stroke-width="1.687" stroke-linecap="butt" stroke-miterlimit="10" stroke-linejoin="miter" fill="none" stroke="#010202" d="M1130.996 377.731H1139.968V503.703H1130.996Z"/>
<path transform="matrix(1,0,0,-1,0,792)" d="M1017.013 665.575H1045.238V674.547H1017.013Z" fill="#ffffff"/>
<path transform="matrix(1,0,0,-1,0,792)" stroke-width=".799" stroke-linecap="butt" stroke-miterlimit="10" stroke-linejoin="miter" fill="none" stroke="#010202" d="M1017.013 665.575H1045.238V674.547H1017.013Z"/>
<path transform="matrix(1,0,0,-1,0,792)" d="M1052.917 665.575H1081.142V674.547H1052.917Z" fill="#ffffff"/>
<path transform="matrix(1,0,0,-1,0,792)" stroke-width=".799" stroke-linecap="butt" stroke-miterlimit="10" stroke-linejoin="miter" fill="none" stroke="#010202" d="M1052.917 665.575H1081.142V674.547H1052.917Z"/>
<path transform="matrix(1,0,0,-1,0,792)" d="M1088.821 665.575H1117.046V674.547H1088.821Z" fill="#ffffff"/>
<path transform="matrix(1,0,0,-1,0,792)" stroke-width=".799" stroke-linecap="butt" stroke-miterlimit="10" stroke-linejoin="miter" fill="none" stroke="#010202" d="M1088.821 665.575H1117.046V674.547H1088.821Z"/>
<path transform="matrix(1,0,0,-1,0,792)" d="M645.501 627.635H695.05398V636.607H645.501Z" fill="#ffffff"/>
<path transform="matrix(1,0,0,-1,0,792)" stroke-width="1.058" stroke-linecap="butt" stroke-miterlimit="10" stroke-linejoin="miter" fill="none" stroke="#010202" d="M645.501 627.635H695.05398V636.607H645.501Z"/>
<path transform="matrix(1,0,0,-1,582.5336,203.40583)" stroke-width=".856" stroke-linecap="butt" stroke-miterlimit="10" stroke-linejoin="miter" fill="none" stroke="#010202" d="M0 0C0 13.477 11.206 24.684 24.684 24.684"/>
<path transform="matrix(1,0,0,-1,579.9624,203.35413)" stroke-width=".856" stroke-linecap="butt" stroke-miterlimit="10" stroke-linejoin="miter" fill="none" stroke="#010202" d="M0 0H2.571 26.829"/>
<path transform="matrix(1,0,0,-1,607.0768,203.35413)" stroke-width=".856" stroke-linecap="butt" stroke-miterlimit="10" stroke-linejoin="miter" fill="none" stroke="#010202" d="M0 0V1.855"/>
<path transform="matrix(1,0,0,-1,0,792)" d="M599.465 588.594H609.20608V613.278H599.465Z" fill="#ffffff"/>
<path transform="matrix(1,0,0,-1,792.5456,567.1261)" stroke-width=".75" stroke-linecap="butt" stroke-miterlimit="10" stroke-linejoin="miter" fill="none" stroke="#010202" d="M0 0C11.805 0 21.375-9.57 21.375-21.375"/>
<path transform="matrix(1,0,0,-1,792.7956,565.0011)" stroke-width=".75" stroke-linecap="butt" stroke-miterlimit="10" stroke-linejoin="miter" fill="none" stroke="#010202" d="M0 0V-23.5"/>
<path transform="matrix(1,0,0,-1,787.7956,588.751)" stroke-width=".75" stroke-linecap="butt" stroke-miterlimit="10" stroke-linejoin="miter" fill="none" stroke="#010202" d="M0 0H6.625"/>
<path transform="matrix(1,0,0,-1,849.608,563.5636)" stroke-width=".75" stroke-linecap="butt" stroke-miterlimit="10" stroke-linejoin="miter" fill="none" stroke="#010202" d="M0 0C0-11.805-9.57-21.375-21.375-21.375"/>
<path transform="matrix(1,0,0,-1,851.733,563.8136)" stroke-width=".75" stroke-linecap="butt" stroke-miterlimit="10" stroke-linejoin="miter" fill="none" stroke="#010202" d="M0 0H-23.5"/>
<path transform="matrix(1,0,0,-1,827.983,558.8136)" stroke-width=".75" stroke-linecap="butt" stroke-miterlimit="10" stroke-linejoin="miter" fill="none" stroke="#010202" d="M0 0V-6.625"/>
<path transform="matrix(1,0,0,-1,0,792)" d="M862.5 341.545H887.5V350.545H862.5Z" fill="#ffffff"/>
<path transform="matrix(1,0,0,-1,863.5,426.4554)" stroke-width=".833" stroke-linecap="butt" stroke-miterlimit="10" stroke-linejoin="miter" fill="none" stroke="#010202" d="M0 0C13.104 0 24-10.896 24-24"/>
<path transform="matrix(1,0,0,-1,863.5502,423.9554)" stroke-width=".833" stroke-linecap="butt" stroke-miterlimit="10" stroke-linejoin="miter" fill="none" stroke="#010202" d="M0 0V-2.5-26.086"/>
<path transform="matrix(1,0,0,-1,858,450.3191)" stroke-width=".833" stroke-linecap="butt" stroke-miterlimit="10" stroke-linejoin="miter" fill="none" stroke="#010202" d="M0 0H7.354"/>
<path transform="matrix(1,0,0,-1,0,792)" d="M742.768 334.017H748.81V350.8H742.768Z" fill="#ffffff"/>
<path transform="matrix(1,0,0,-1,758.8793,441.871)" stroke-width=".559" stroke-linecap="butt" stroke-miterlimit="10" stroke-linejoin="miter" fill="none" stroke="#010202" d="M0 0C0-8.797-7.314-16.112-16.111-16.112"/>
<path transform="matrix(1,0,0,-1,760.5576,441.9047)" stroke-width=".559" stroke-linecap="butt" stroke-miterlimit="10" stroke-linejoin="miter" fill="none" stroke="#010202" d="M0 0H-1.678-17.512"/>
<path transform="matrix(1,0,0,-1,742.8594,438.1788)" stroke-width=".559" stroke-linecap="butt" stroke-miterlimit="10" stroke-linejoin="miter" fill="none" stroke="#010202" d="M0 0V-4.937"/>
<path transform="matrix(1,0,0,-1,0,792)" d="M772.798 334.017H778.83999V350.8H772.798Z" fill="#ffffff"/>
<path transform="matrix(1,0,0,-1,762.7282,441.871)" stroke-width=".559" stroke-linecap="butt" stroke-miterlimit="10" stroke-linejoin="miter" fill="none" stroke="#010202" d="M0 0C0-8.797 7.314-16.112 16.112-16.112"/>
<path transform="matrix(1,0,0,-1,761.0499,441.9047)" stroke-width=".559" stroke-linecap="butt" stroke-miterlimit="10" stroke-linejoin="miter" fill="none" stroke="#010202" d="M0 0H1.678 17.512"/>
<path transform="matrix(1,0,0,-1,778.7482,438.1788)" stroke-width=".559" stroke-linecap="butt" stroke-miterlimit="10" stroke-linejoin="miter" fill="none" stroke="#010202" d="M0 0V-4.937"/>
<path transform="matrix(1,0,0,-1,0,792)" d="M1000.508 334.643H1020.673V341.902H1000.508Z" fill="#ffffff"/>
<path transform="matrix(1,0,0,-1,1019.866,469.4564)" stroke-width=".672" stroke-linecap="butt" stroke-miterlimit="10" stroke-linejoin="miter" fill="none" stroke="#010202" d="M0 0C-10.57 0-19.358 8.788-19.358 19.358"/>
<path transform="matrix(1,0,0,-1,1019.826,471.4728)" stroke-width=".672" stroke-linecap="butt" stroke-miterlimit="10" stroke-linejoin="miter" fill="none" stroke="#010202" d="M0 0V2.016 21.041"/>
<path transform="matrix(1,0,0,-1,1024.303,450.2084)" stroke-width=".672" stroke-linecap="butt" stroke-miterlimit="10" stroke-linejoin="miter" fill="none" stroke="#010202" d="M0 0H-5.932"/>
<path transform="matrix(1,0,0,-1,0,792)" d="M1000.508 298.561H1020.673V305.82H1000.508Z" fill="#ffffff"/>
<path transform="matrix(1,0,0,-1,1019.866,474.0808)" stroke-width=".672" stroke-linecap="butt" stroke-miterlimit="10" stroke-linejoin="miter" fill="none" stroke="#010202" d="M0 0C-10.57 0-19.358-8.788-19.358-19.358"/>
<path transform="matrix(1,0,0,-1,1019.826,472.0643)" stroke-width=".672" stroke-linecap="butt" stroke-miterlimit="10" stroke-linejoin="miter" fill="none" stroke="#010202" d="M0 0V-2.016-21.041"/>
<path transform="matrix(1,0,0,-1,1024.303,493.3287)" stroke-width=".672" stroke-linecap="butt" stroke-miterlimit="10" stroke-linejoin="miter" fill="none" stroke="#010202" d="M0 0H-5.932"/>
<path transform="matrix(1,0,0,-1,0,792)" d="M944.691 269.093H952.138V289.78H944.691Z" fill="#ffffff"/>
<path transform="matrix(1,0,0,-1,964.5511,503.0476)" stroke-width=".689" stroke-linecap="butt" stroke-miterlimit="10" stroke-linejoin="miter" fill="none" stroke="#010202" d="M0 0C0-10.844-9.016-19.86-19.86-19.86"/>
<path transform="matrix(1,0,0,-1,966.6199,503.0892)" stroke-width=".689" stroke-linecap="butt" stroke-miterlimit="10" stroke-linejoin="miter" fill="none" stroke="#010202" d="M0 0H-2.069-21.586"/>
<path transform="matrix(1,0,0,-1,944.8042,498.4964)" stroke-width=".689" stroke-linecap="butt" stroke-miterlimit="10" stroke-linejoin="miter" fill="none" stroke="#010202" d="M0 0V-6.085"/>
<path transform="matrix(1,0,0,-1,0,792)" d="M981.708 269.093H989.155V289.78H981.708Z" fill="#ffffff"/>
<path transform="matrix(1,0,0,-1,969.2955,503.0476)" stroke-width=".689" stroke-linecap="butt" stroke-miterlimit="10" stroke-linejoin="miter" fill="none" stroke="#010202" d="M0 0C0-10.844 9.016-19.86 19.86-19.86"/>
<path transform="matrix(1,0,0,-1,967.2267,503.0892)" stroke-width=".689" stroke-linecap="butt" stroke-miterlimit="10" stroke-linejoin="miter" fill="none" stroke="#010202" d="M0 0H2.069 21.586"/>
<path transform="matrix(1,0,0,-1,989.0424,498.4964)" stroke-width=".689" stroke-linecap="butt" stroke-miterlimit="10" stroke-linejoin="miter" fill="none" stroke="#010202" d="M0 0V-6.085"/>
<path transform="matrix(1,0,0,-1,0,792)" d="M574.892 196.061H620.03707V205.53H574.892Z" fill="#ffffff"/>
<path transform="matrix(1,0,0,-1,574.8918,609.7024)" stroke-width=".784" stroke-linecap="butt" stroke-miterlimit="10" stroke-linejoin="miter" fill="none" stroke="#010202" d="M0 0C12.338 0 22.596 10.258 22.596 22.596"/>
<path transform="matrix(1,0,0,-1,574.9391,612.0561)" stroke-width=".784" stroke-linecap="butt" stroke-miterlimit="10" stroke-linejoin="miter" fill="none" stroke="#010202" d="M0 0V2.354 24.56"/>
<path transform="matrix(1,0,0,-1,569.7134,587.2345)" stroke-width=".784" stroke-linecap="butt" stroke-miterlimit="10" stroke-linejoin="miter" fill="none" stroke="#010202" d="M0 0H6.924"/>
<path transform="matrix(1,0,0,-1,620.0843,609.8972)" stroke-width=".784" stroke-linecap="butt" stroke-miterlimit="10" stroke-linejoin="miter" fill="none" stroke="#010202" d="M0 0C-12.338 0-22.596 10.258-22.596 22.596"/>
<path transform="matrix(1,0,0,-1,620.037,612.251)" stroke-width=".784" stroke-linecap="butt" stroke-miterlimit="10" stroke-linejoin="miter" fill="none" stroke="#010202" d="M0 0V2.354 24.56"/>
<path transform="matrix(1,0,0,-1,625.2626,587.4293)" stroke-width=".784" stroke-linecap="butt" stroke-miterlimit="10" stroke-linejoin="miter" fill="none" stroke="#010202" d="M0 0H-6.924"/>
<path transform="matrix(1,0,0,-1,0,792)" d="M1008.04 589.079H1017.01199V631.855H1008.04Z" fill="#ffffff"/>
<path transform="matrix(1,0,0,-1,994.9989,160.14508)" stroke-width=".743" stroke-linecap="butt" stroke-miterlimit="10" stroke-linejoin="miter" fill="none" stroke="#010202" d="M0 0C0-11.69 9.72-21.411 21.411-21.411"/>
<path transform="matrix(1,0,0,-1,992.7687,160.18988)" stroke-width=".743" stroke-linecap="butt" stroke-miterlimit="10" stroke-linejoin="miter" fill="none" stroke="#010202" d="M0 0H2.23 23.272"/>
<path transform="matrix(1,0,0,-1,1016.288,155.23853)" stroke-width=".743" stroke-linecap="butt" stroke-miterlimit="10" stroke-linejoin="miter" fill="none" stroke="#010202" d="M0 0V-6.561"/>
<path transform="matrix(1,0,0,-1,994.8143,202.96613)" stroke-width=".743" stroke-linecap="butt" stroke-miterlimit="10" stroke-linejoin="miter" fill="none" stroke="#010202" d="M0 0C0 11.69 9.72 21.411 21.411 21.411"/>
<path transform="matrix(1,0,0,-1,992.584,202.92133)" stroke-width=".743" stroke-linecap="butt" stroke-miterlimit="10" stroke-linejoin="miter" fill="none" stroke="#010202" d="M0 0H2.23 23.272"/>
<path transform="matrix(1,0,0,-1,1016.103,207.87268)" stroke-width=".743" stroke-linecap="butt" stroke-miterlimit="10" stroke-linejoin="miter" fill="none" stroke="#010202" d="M0 0V6.561"/>
<path transform="matrix(1,0,0,-1,0,792)" d="M950.473 648.175H990.851V656.644H950.473Z" fill="#ffffff"/>
<path transform="matrix(1,0,0,-1,990.8512,123.04559)" stroke-width=".701" stroke-linecap="butt" stroke-miterlimit="10" stroke-linejoin="miter" fill="none" stroke="#010202" d="M0 0C-11.035 0-20.21-9.175-20.21-20.21"/>
<path transform="matrix(1,0,0,-1,990.8089,120.94043)" stroke-width=".701" stroke-linecap="butt" stroke-miterlimit="10" stroke-linejoin="miter" fill="none" stroke="#010202" d="M0 0V-2.105-21.967"/>
<path transform="matrix(1,0,0,-1,995.4827,143.14093)" stroke-width=".701" stroke-linecap="butt" stroke-miterlimit="10" stroke-linejoin="miter" fill="none" stroke="#010202" d="M0 0H-6.193"/>
<path transform="matrix(1,0,0,-1,950.4309,122.87128)" stroke-width=".701" stroke-linecap="butt" stroke-miterlimit="10" stroke-linejoin="miter" fill="none" stroke="#010202" d="M0 0C11.035 0 20.21-9.175 20.21-20.21"/>
<path transform="matrix(1,0,0,-1,950.4732,120.76611)" stroke-width=".701" stroke-linecap="butt" stroke-miterlimit="10" stroke-linejoin="miter" fill="none" stroke="#010202" d="M0 0V-2.105-21.967"/>
<path transform="matrix(1,0,0,-1,945.7994,142.96662)" stroke-width=".701" stroke-linecap="butt" stroke-miterlimit="10" stroke-linejoin="miter" fill="none" stroke="#010202" d="M0 0H6.193"/>
<path transform="matrix(1,0,0,-1,0,792)" d="M204.213 426.722H246.989V435.69398H204.213Z" fill="#ffffff"/>
<path transform="matrix(1,0,0,-1,246.9892,343.2647)" stroke-width=".743" stroke-linecap="butt" stroke-miterlimit="10" stroke-linejoin="miter" fill="none" stroke="#010202" d="M0 0C-11.69 0-21.411-9.72-21.411-21.411"/>
<path transform="matrix(1,0,0,-1,246.9444,341.0344)" stroke-width=".743" stroke-linecap="butt" stroke-miterlimit="10" stroke-linejoin="miter" fill="none" stroke="#010202" d="M0 0V-2.23-23.272"/>
<path transform="matrix(1,0,0,-1,251.8958,364.5536)" stroke-width=".743" stroke-linecap="butt" stroke-miterlimit="10" stroke-linejoin="miter" fill="none" stroke="#010202" d="M0 0H-6.561"/>
<path transform="matrix(1,0,0,-1,204.1681,343.0801)" stroke-width=".743" stroke-linecap="butt" stroke-miterlimit="10" stroke-linejoin="miter" fill="none" stroke="#010202" d="M0 0C11.69 0 21.411-9.72 21.411-21.411"/>
<path transform="matrix(1,0,0,-1,204.213,340.8498)" stroke-width=".743" stroke-linecap="butt" stroke-miterlimit="10" stroke-linejoin="miter" fill="none" stroke="#010202" d="M0 0V-2.23-23.272"/>
<path transform="matrix(1,0,0,-1,199.2616,364.369)" stroke-width=".743" stroke-linecap="butt" stroke-miterlimit="10" stroke-linejoin="miter" fill="none" stroke="#010202" d="M0 0H6.561"/>
<path transform="matrix(1,0,0,-1,0,792)" d="M907.243 280.78H932.243V289.78H907.243Z" fill="#ffffff"/>
<path transform="matrix(1,0,0,-1,931.2431,526.2201)" stroke-width=".833" stroke-linecap="butt" stroke-miterlimit="10" stroke-linejoin="miter" fill="none" stroke="#010202" d="M0 0C-13.104 0-24 10.896-24 24"/>
<path transform="matrix(1,0,0,-1,931.1929,528.7201)" stroke-width=".833" stroke-linecap="butt" stroke-miterlimit="10" stroke-linejoin="miter" fill="none" stroke="#010202" d="M0 0V2.5 26.086"/>
<path transform="matrix(1,0,0,-1,936.7431,502.3564)" stroke-width=".833" stroke-linecap="butt" stroke-miterlimit="10" stroke-linejoin="miter" fill="none" stroke="#010202" d="M0 0H-7.354"/>
<path transform="matrix(1,0,0,-1,0,792)" d="M874.906 203.843H883.906V228.843H874.906Z" fill="#ffffff"/>
<path transform="matrix(1,0,0,-1,859.9062,564.1573)" stroke-width=".833" stroke-linecap="butt" stroke-miterlimit="10" stroke-linejoin="miter" fill="none" stroke="#010202" d="M0 0C0-13.104 10.896-24 24-24"/>
<path transform="matrix(1,0,0,-1,857.4062,564.2076)" stroke-width=".833" stroke-linecap="butt" stroke-miterlimit="10" stroke-linejoin="miter" fill="none" stroke="#010202" d="M0 0H2.5 26.086"/>
<path transform="matrix(1,0,0,-1,883.7699,558.6573)" stroke-width=".833" stroke-linecap="butt" stroke-miterlimit="10" stroke-linejoin="miter" fill="none" stroke="#010202" d="M0 0V-7.354"/>
<path transform="matrix(1,0,0,-1,0,792)" d="M832.733 288.518H857.733V297.518H832.733Z" fill="#ffffff"/>
<path transform="matrix(1,0,0,-1,833.733,518.4822)" stroke-width=".833" stroke-linecap="butt" stroke-miterlimit="10" stroke-linejoin="miter" fill="none" stroke="#010202" d="M0 0C13.104 0 24 10.896 24 24"/>
<path transform="matrix(1,0,0,-1,833.7833,520.9822)" stroke-width=".833" stroke-linecap="butt" stroke-miterlimit="10" stroke-linejoin="miter" fill="none" stroke="#010202" d="M0 0V2.5 26.086"/>
<path transform="matrix(1,0,0,-1,828.233,494.6186)" stroke-width=".833" stroke-linecap="butt" stroke-miterlimit="10" stroke-linejoin="miter" fill="none" stroke="#010202" d="M0 0H7.354"/>
<path transform="matrix(1,0,0,-1,0,792)" d="M729.176 308.021H737.327V330.663H729.176Z" fill="#ffffff"/>
<path transform="matrix(1,0,0,-1,715.5914,462.2428)" stroke-width=".754" stroke-linecap="butt" stroke-miterlimit="10" stroke-linejoin="miter" fill="none" stroke="#010202" d="M0 0C0-11.868 9.868-21.736 21.736-21.736"/>
<path transform="matrix(1,0,0,-1,713.3272,462.2883)" stroke-width=".754" stroke-linecap="butt" stroke-miterlimit="10" stroke-linejoin="miter" fill="none" stroke="#010202" d="M0 0H2.264 23.625"/>
<path transform="matrix(1,0,0,-1,737.2037,457.2616)" stroke-width=".754" stroke-linecap="butt" stroke-miterlimit="10" stroke-linejoin="miter" fill="none" stroke="#010202" d="M0 0V-6.66"/>
<path transform="matrix(1,0,0,-1,0,792)" d="M804.697 580.49H827.54507V589.058H804.697Z" fill="#ffffff"/>
<path transform="matrix(1,0,0,-1,827.5447,225.78968)" stroke-width=".793" stroke-linecap="butt" stroke-miterlimit="10" stroke-linejoin="miter" fill="none" stroke="#010202" d="M0 0C-12.475 0-22.848 10.373-22.848 22.848"/>
<path transform="matrix(1,0,0,-1,827.4968,228.16962)" stroke-width=".793" stroke-linecap="butt" stroke-miterlimit="10" stroke-linejoin="miter" fill="none" stroke="#010202" d="M0 0V2.38 24.834"/>
<path transform="matrix(1,0,0,-1,827.4968,203.0719)" stroke-width=".793" stroke-linecap="butt" stroke-miterlimit="10" stroke-linejoin="miter" fill="none" stroke="#010202" d="M0 0H-1.717"/>
<path transform="matrix(1,0,0,-1,0,792)" d="M210.851 341.478H235.851V350.478H210.851Z" fill="#ffffff"/>
<path transform="matrix(1,0,0,-1,234.8511,426.5224)" stroke-width=".833" stroke-linecap="butt" stroke-miterlimit="10" stroke-linejoin="miter" fill="none" stroke="#010202" d="M0 0C-13.104 0-24-10.896-24-24"/>
<path transform="matrix(1,0,0,-1,234.8008,424.0224)" stroke-width=".833" stroke-linecap="butt" stroke-miterlimit="10" stroke-linejoin="miter" fill="none" stroke="#010202" d="M0 0V-2.5-26.086"/>
<path transform="matrix(1,0,0,-1,240.3511,450.386)" stroke-width=".833" stroke-linecap="butt" stroke-miterlimit="10" stroke-linejoin="miter" fill="none" stroke="#010202" d="M0 0H-7.354"/>
<path transform="matrix(1,0,0,-1,0,792)" d="M289.858 376.627H314.858V385.627H289.858Z" fill="#ffffff"/>
<path transform="matrix(1,0,0,-1,290.8582,391.3726)" stroke-width=".833" stroke-linecap="butt" stroke-miterlimit="10" stroke-linejoin="miter" fill="none" stroke="#010202" d="M0 0C13.104 0 24-10.896 24-24"/>
<path transform="matrix(1,0,0,-1,290.9084,388.8726)" stroke-width=".833" stroke-linecap="butt" stroke-miterlimit="10" stroke-linejoin="miter" fill="none" stroke="#010202" d="M0 0V-2.5-26.086"/>
<path transform="matrix(1,0,0,-1,285.3582,415.2362)" stroke-width=".833" stroke-linecap="butt" stroke-miterlimit="10" stroke-linejoin="miter" fill="none" stroke="#010202" d="M0 0H7.354"/>
<path transform="matrix(1,0,0,-1,0,792)" d="M383.953 352.041H392.953V377.041H383.953Z" fill="#ffffff"/>
<path transform="matrix(1,0,0,-1,368.9529,438.9587)" stroke-width=".833" stroke-linecap="butt" stroke-miterlimit="10" stroke-linejoin="miter" fill="none" stroke="#010202" d="M0 0C0 13.104 10.896 24 24 24"/>
<path transform="matrix(1,0,0,-1,366.4529,438.9084)" stroke-width=".833" stroke-linecap="butt" stroke-miterlimit="10" stroke-linejoin="miter" fill="none" stroke="#010202" d="M0 0H2.5 26.086"/>
<path transform="matrix(1,0,0,-1,392.8165,444.4587)" stroke-width=".833" stroke-linecap="butt" stroke-miterlimit="10" stroke-linejoin="miter" fill="none" stroke="#010202" d="M0 0V7.354"/>
<path transform="matrix(1,0,0,-1,0,792)" d="M474.067 534.804H528.76V546.275H474.067Z" fill="#ffffff"/>
<path transform="matrix(1,0,0,-1,528.7598,229.05048)" stroke-width=".95" stroke-linecap="butt" stroke-miterlimit="10" stroke-linejoin="miter" fill="none" stroke="#010202" d="M0 0C-14.947 0-27.375-12.428-27.375-27.375"/>
<path transform="matrix(1,0,0,-1,528.7025,226.19898)" stroke-width=".95" stroke-linecap="butt" stroke-miterlimit="10" stroke-linejoin="miter" fill="none" stroke="#010202" d="M0 0V-2.852-29.754"/>
<path transform="matrix(1,0,0,-1,535.0331,256.2699)" stroke-width=".95" stroke-linecap="butt" stroke-miterlimit="10" stroke-linejoin="miter" fill="none" stroke="#010202" d="M0 0H-8.388"/>
<path transform="matrix(1,0,0,-1,474.0099,228.81452)" stroke-width=".95" stroke-linecap="butt" stroke-miterlimit="10" stroke-linejoin="miter" fill="none" stroke="#010202" d="M0 0C14.947 0 27.375-12.428 27.375-27.375"/>
<path transform="matrix(1,0,0,-1,474.0672,225.96289)" stroke-width=".95" stroke-linecap="butt" stroke-miterlimit="10" stroke-linejoin="miter" fill="none" stroke="#010202" d="M0 0V-2.852-29.754"/>
<path transform="matrix(1,0,0,-1,467.7364,256.03388)" stroke-width=".95" stroke-linecap="butt" stroke-miterlimit="10" stroke-linejoin="miter" fill="none" stroke="#010202" d="M0 0H8.388"/>
<path transform="matrix(1,0,0,-1,0,792)" stroke-width="1" stroke-linecap="butt" stroke-miterlimit="10" stroke-linejoin="miter" fill="none" stroke="#010202" d="M397.487 350.993H462.151V535.209H397.487Z"/>
<text fill="#010202" xml:space="preserve" transform="matrix(1 0 -0 1 0 792)" font-size="12" font-family="MyriadPro-Regular"><tspan y="-438.2129" x="414.7812 420.6612 424.6332 430.4172 437.1252">Stage</tspan></text>
<path transform="matrix(1,0,0,-1,668.1055,431.6561)" stroke-width=".5" stroke-linecap="butt" stroke-miterlimit="10" stroke-linejoin="miter" fill="none" stroke="#010202" d="M0 0V-4.032"/>
<path transform="matrix(1,0,0,-1,0,792)" d="M668.1055 356.598C665.0095 356.598 662.5005 354.088 662.5005 350.993H673.7105C673.7105 354.088 671.2015 356.598 668.1055 356.598" fill="#ffffff"/>
<path transform="matrix(1,0,0,-1,668.1055,435.402)" stroke-width=".5" stroke-linecap="butt" stroke-miterlimit="10" stroke-linejoin="miter" fill="none" stroke="#010202" d="M0 0C-3.096 0-5.605-2.51-5.605-5.605H5.605C5.605-2.51 3.096 0 0 0Z"/>
<path transform="matrix(1,0,0,-1,668.1055,266.81098)" stroke-width=".5" stroke-linecap="butt" stroke-miterlimit="10" stroke-linejoin="miter" fill="none" stroke="#010202" d="M0 0V4.032"/>
<path transform="matrix(1,0,0,-1,0,792)" d="M668.1055 528.9349C671.2015 528.9349 673.7105 531.4449 673.7105 534.5399H662.5005C662.5005 531.4449 665.0095 528.9349 668.1055 528.9349" fill="#ffffff"/>
<path transform="matrix(1,0,0,-1,668.1055,263.06513)" stroke-width=".5" stroke-linecap="butt" stroke-miterlimit="10" stroke-linejoin="miter" fill="none" stroke="#010202" d="M0 0C3.096 0 5.605 2.51 5.605 5.605H-5.605C-5.605 2.51-3.096 0 0 0Z"/>
<path transform="matrix(1,0,0,-1,567.8604,431.6561)" stroke-width=".5" stroke-linecap="butt" stroke-miterlimit="10" stroke-linejoin="miter" fill="none" stroke="#010202" d="M0 0V-4.032"/>
<path transform="matrix(1,0,0,-1,0,792)" d="M567.8604 356.598C564.7644 356.598 562.2554 354.088 562.2554 350.993H573.4654C573.4654 354.088 570.9564 356.598 567.8604 356.598" fill="#ffffff"/>
<path transform="matrix(1,0,0,-1,567.8604,435.402)" stroke-width=".5" stroke-linecap="butt" stroke-miterlimit="10" stroke-linejoin="miter" fill="none" stroke="#010202" d="M0 0C-3.096 0-5.605-2.51-5.605-5.605H5.605C5.605-2.51 3.096 0 0 0Z"/>
<path transform="matrix(1,0,0,-1,567.8604,266.417)" stroke-width=".5" stroke-linecap="butt" stroke-miterlimit="10" stroke-linejoin="miter" fill="none" stroke="#010202" d="M0 0V4.032"/>
<path transform="matrix(1,0,0,-1,0,792)" d="M567.8604 529.3289C570.9564 529.3289 573.4654 531.8389 573.4654 534.9339H562.2554C562.2554 531.8389 564.7644 529.3289 567.8604 529.3289" fill="#ffffff"/>
<path transform="matrix(1,0,0,-1,567.8604,262.67109)" stroke-width=".5" stroke-linecap="butt" stroke-miterlimit="10" stroke-linejoin="miter" fill="none" stroke="#010202" d="M0 0C3.096 0 5.605 2.51 5.605 5.605H-5.605C-5.605 2.51-3.096 0 0 0Z"/>
<path transform="matrix(1,0,0,-1,773.4011,386.3944)" stroke-width=".5" stroke-linecap="butt" stroke-miterlimit="10" stroke-linejoin="miter" fill="none" stroke="#010202" d="M0 0H4.032"/>
<path transform="matrix(1,0,0,-1,0,792)" d="M777.147 405.6056C777.147 402.5096 779.657 400.0006 782.752 400.0006V411.2106C779.657 411.2106 777.147 408.7016 777.147 405.6056" fill="#ffffff"/>
<path transform="matrix(1,0,0,-1,777.147,386.3944)" stroke-width=".5" stroke-linecap="butt" stroke-miterlimit="10" stroke-linejoin="miter" fill="none" stroke="#010202" d="M0 0C0-3.096 2.51-5.605 5.605-5.605V5.605C2.51 5.605 0 3.096 0 0Z"/>
<path transform="matrix(1,0,0,-1,773.4011,306.6071)" stroke-width=".5" stroke-linecap="butt" stroke-miterlimit="10" stroke-linejoin="miter" fill="none" stroke="#010202" d="M0 0H4.032"/>
<path transform="matrix(1,0,0,-1,0,792)" d="M777.147 485.3929C777.147 482.2969 779.657 479.7879 782.752 479.7879V490.9979C779.657 490.9979 777.147 488.4889 777.147 485.3929" fill="#ffffff"/>
<path transform="matrix(1,0,0,-1,777.147,306.6071)" stroke-width=".5" stroke-linecap="butt" stroke-miterlimit="10" stroke-linejoin="miter" fill="none" stroke="#010202" d="M0 0C0-3.096 2.51-5.605 5.605-5.605V5.605C2.51 5.605 0 3.096 0 0Z"/>
<path transform="matrix(1,0,0,-1,406.8384,306.6071)" stroke-width=".5" stroke-linecap="butt" stroke-miterlimit="10" stroke-linejoin="miter" fill="none" stroke="#010202" d="M0 0H-4.032"/>
<path transform="matrix(1,0,0,-1,0,792)" d="M403.0925 485.3929C403.0925 488.4889 400.5825 490.9979 397.4875 490.9979V479.7879C400.5825 479.7879 403.0925 482.2969 403.0925 485.3929" fill="#ffffff"/>
<path transform="matrix(1,0,0,-1,403.0925,306.6071)" stroke-width=".5" stroke-linecap="butt" stroke-miterlimit="10" stroke-linejoin="miter" fill="none" stroke="#010202" d="M0 0C0 3.096-2.51 5.605-5.605 5.605V-5.605C-2.51-5.605 0-3.096 0 0Z"/>
<path transform="matrix(1,0,0,-1,406.8384,386.3943)" stroke-width=".5" stroke-linecap="butt" stroke-miterlimit="10" stroke-linejoin="miter" fill="none" stroke="#010202" d="M0 0H-4.032"/>
<path transform="matrix(1,0,0,-1,0,792)" d="M403.0925 405.6056C403.0925 408.7016 400.5825 411.2106 397.4875 411.2106V400.0006C400.5825 400.0006 403.0925 402.5096 403.0925 405.6056" fill="#ffffff"/>
<path transform="matrix(1,0,0,-1,403.0925,386.3944)" stroke-width=".5" stroke-linecap="butt" stroke-miterlimit="10" stroke-linejoin="miter" fill="none" stroke="#010202" d="M0 0C0 3.096-2.51 5.605-5.605 5.605V-5.605C-2.51-5.605 0-3.096 0 0Z"/>
</g>
</svg>
